# xmcd
#
# Track frame offsets: 
#        150
#        16200
#        31489
#        49685
#        55542
#        69244
#        87660
#        102715
#        113778
#        122348
#        136538
#        150127
#        167893
#        180745
#
# Disc length: 2604 seconds
#
# Revision: 0
# Processed by: cddbd v1.5.2PL0 Copyright (c) Steve Scherf et al.
# Submitted via: ExactAudioCopy v0.99pb5
#
DISCID=a80a2a0e
DTITLE=Vìra Wajsarová and Minimum - Mìsíc sebevrahù
DYEAR=2007
DGENRE=Vocal
TTITLE0=Nechci te
TTITLE1=Voda, vodenka
TTITLE2=Krajina
TTITLE3=Na mne-li myslis
TTITLE4=Neplac uz, slzicko leskla
TTITLE5=Romance z krcmy
TTITLE6=Retizkac
TTITLE7=Tak uz se vrat
TTITLE8=Smutna nevesat
TTITLE9=Utecu jednou z tehla aleji
TTITLE10=Prosba
TTITLE11=V tvem saku spim, lasko moje
TTITLE12=Obejmi me
TTITLE13=Mesic sebevrahu
EXTD=
EXTT0=
EXTT1=
EXTT2=
EXTT3=
EXTT4=
EXTT5=
EXTT6=
EXTT7=
EXTT8=
EXTT9=
EXTT10=
EXTT11=
EXTT12=
EXTT13=
PLAYORDER=
